<svg width="24" height="24" viewBox="0 0 24 24" fill="none" xmlns="http://www.w3.org/2000/svg">
<circle cx="12" cy="12" r="12" fill="#FF9B22"/>
<path d="M16.9423 11.2289C17.1433 10.7967 17.2387 10.34 17.2061 9.85984C17.1864 9.56126 17.1036 9.28395 16.9593 9.02494C16.76 8.66897 16.477 8.39382 16.15 8.15977C15.7051 7.84104 15.2135 7.61882 14.705 7.42474C14.6264 7.39476 14.6264 7.39626 14.6473 7.31724C14.8243 6.65681 15.0013 5.99638 15.1827 5.33604C15.1988 5.27342 15.1843 5.25216 15.1263 5.23756C14.7371 5.13418 14.3478 5.02931 13.96 4.92296C13.9051 4.90692 13.881 4.91695 13.865 4.97508C13.7281 5.49392 13.5882 6.01121 13.4498 6.52852C13.4096 6.6776 13.3695 6.82518 13.3277 6.97572C13.3098 6.97388 13.2949 6.97509 13.2815 6.97184C12.9813 6.89415 12.6812 6.81496 12.3794 6.74173C12.3125 6.72546 12.313 6.7015 12.3275 6.64633C12.5042 5.99939 12.6779 5.35238 12.8516 4.70538C12.8725 4.62936 12.871 4.62933 12.7923 4.60684C12.5337 4.53744 12.2767 4.46657 12.0182 4.39717C11.8682 4.35683 11.7166 4.31646 11.5606 4.2745C11.5526 4.30282 11.5432 4.32362 11.5383 4.3445C11.3599 5.0049 11.1829 5.66683 11.0044 6.32723C10.9835 6.40774 10.9835 6.40774 10.8973 6.38511C10.6313 6.31557 10.3654 6.24453 10.1009 6.17202C9.54821 6.02355 8.99699 5.8751 8.44583 5.72366C8.38342 5.70748 8.3622 5.72355 8.34615 5.78169C8.2365 6.20365 8.12383 6.62706 8.0082 7.04891C7.99531 7.09811 8.00389 7.11775 8.05293 7.13068C8.25062 7.17943 8.44837 7.22519 8.64439 7.2829C8.81963 7.33421 8.99791 7.38259 9.16224 7.45767C9.45241 7.59061 9.58833 7.90041 9.50153 8.22092C9.28128 9.03636 9.064 9.85185 8.84372 10.6688C8.55093 11.7616 8.25814 12.8543 7.96088 13.947C7.91907 14.102 7.81982 14.2155 7.6649 14.2725C7.54156 14.3181 7.41961 14.2917 7.30075 14.2595C7.02885 14.1868 6.75849 14.1112 6.48667 14.0341C6.43618 14.0196 6.40626 14.022 6.38131 14.077C6.18779 14.5108 5.98986 14.9416 5.79338 15.3739C5.77311 15.4184 5.75434 15.463 5.73243 15.5151C5.7651 15.5247 5.79033 15.5327 5.81411 15.5391C6.63418 15.7631 7.45276 15.9872 8.27137 16.2097C8.3308 16.2258 8.33784 16.2484 8.32184 16.3035C8.14181 16.9684 7.96327 17.6333 7.78474 18.2982C7.75904 18.3921 7.75904 18.3921 7.85561 18.4179L8.99663 18.7275C9.07391 18.747 9.07388 18.7485 9.09476 18.6725C9.2509 18.0851 9.40854 17.4977 9.56617 16.9103C9.59196 16.8119 9.62073 16.7136 9.648 16.6152C9.66589 16.6171 9.67634 16.6173 9.68524 16.6204C9.99271 16.7072 10.2987 16.794 10.6062 16.8779C10.6523 16.8907 10.6564 16.9118 10.6451 16.955C10.4666 17.6154 10.2897 18.2759 10.1112 18.9363C10.0886 19.0227 10.0886 19.0227 10.1718 19.0453C10.5567 19.1486 10.943 19.2519 11.3262 19.3582C11.3857 19.3743 11.4083 19.3643 11.4244 19.3016C11.5999 18.6412 11.7783 17.9793 11.9568 17.3189C11.9649 17.2861 11.9774 17.2548 11.9885 17.2236C12.0956 17.2436 12.1953 17.262 12.2935 17.2819C12.6878 17.3599 13.0841 17.4109 13.4839 17.4336C13.824 17.4536 14.1618 17.4391 14.4989 17.3827C15.3304 17.2458 15.9584 16.8158 16.3669 16.0744C16.6083 15.6355 16.7696 15.1681 16.83 14.6672C16.8674 14.3548 16.8569 14.0459 16.7641 13.7429C16.6194 13.2696 16.32 12.9147 15.9313 12.627C15.7973 12.5286 15.6541 12.4419 15.5111 12.3447C15.5501 12.335 15.5861 12.3252 15.6222 12.3154C16.2227 12.1516 16.676 11.8007 16.9423 11.2289ZM13.386 15.3743C13.1634 15.4555 12.9341 15.5005 12.6981 15.499C12.4771 15.4962 12.2547 15.495 12.0341 15.4712C11.6585 15.4311 11.2897 15.3491 10.9242 15.2521C10.6716 15.1858 10.4206 15.1136 10.1695 15.0443C10.1502 15.038 10.1309 15.0316 10.1087 15.0237C10.1586 14.8328 10.207 14.648 10.2568 14.4631C10.4546 13.7281 10.654 12.9917 10.8518 12.2568C10.8663 12.2016 10.8815 12.1839 10.9425 12.2001C11.4641 12.333 11.989 12.4539 12.4946 12.642C12.8816 12.7858 13.2563 12.9533 13.5859 13.2099C13.8271 13.4003 14.0244 13.6259 14.1082 13.9287C14.2534 14.4559 14.0252 15.1423 13.386 15.3743ZM14.485 10.6377C14.3267 10.9494 14.0548 11.112 13.7262 11.1896C13.4532 11.2533 13.1755 11.2495 12.8981 11.2262C12.3375 11.1779 11.8015 11.0148 11.2638 10.8651C11.2549 10.8619 11.2461 10.8558 11.2312 10.8495C11.4613 9.99229 11.6912 9.13807 11.9213 8.27787C12.0833 8.31844 12.2379 8.35588 12.394 8.39484C12.7715 8.4875 13.1443 8.59505 13.5012 8.75026C13.7871 8.87562 14.0545 9.02611 14.2803 9.24473C14.6864 9.63913 14.7257 10.1599 14.485 10.6377Z" fill="white"/>
</svg>
