<svg width="40" height="40" viewBox="0 0 40 40" fill="none" xmlns="http://www.w3.org/2000/svg">
<path d="M16.8125 13.8417C16.8125 12.7334 15.875 12.0709 14 11.8542L11.75 11.6042C11.375 11.5625 11.0916 11.5167 10.9 11.4667C10.7083 11.4167 10.575 11.3584 10.5 11.2917C10.425 11.2167 10.3875 11.1167 10.3875 10.9917V10.8792C10.3875 10.6709 10.5583 10.5125 10.9 10.4042C11.25 10.2959 11.7625 10.2417 12.4375 10.2417C13.2208 10.2417 13.8083 10.3209 14.2 10.4792C14.6 10.6292 14.8 10.8542 14.8 11.1542V11.2417H16.6375V11.1542C16.6375 10.4709 16.3708 9.92919 15.8375 9.52919C15.3125 9.12085 14.5458 8.86669 13.5375 8.76669V7.70419H11.6375V8.75419C10.6458 8.84585 9.87913 9.08752 9.33746 9.47919C8.79579 9.86252 8.52496 10.3709 8.52496 11.0042V11.1292C8.52496 11.7125 8.74996 12.1667 9.19996 12.4917C9.64996 12.8167 10.3541 13.0334 11.3125 13.1417L13.6 13.3917C13.9583 13.4334 14.2333 13.4792 14.425 13.5292C14.6166 13.5709 14.75 13.6334 14.825 13.7167C14.9 13.8 14.9375 13.9084 14.9375 14.0417V14.1542C14.9375 14.4042 14.7541 14.5917 14.3875 14.7167C14.0291 14.8334 13.4791 14.8917 12.7375 14.8917C11.8791 14.8917 11.2416 14.8084 10.825 14.6417C10.4166 14.4667 10.2125 14.2042 10.2125 13.8542V13.7667H8.37496V13.8542C8.37496 14.5959 8.64996 15.1792 9.19996 15.6042C9.74996 16.0292 10.5625 16.2875 11.6375 16.3792V17.4167H13.5375V16.3792C14.5875 16.2792 15.3958 16.025 15.9625 15.6167C16.5291 15.2 16.8125 14.65 16.8125 13.9667V13.8417Z" fill="#1E5AFF"/>
<path fill-rule="evenodd" clip-rule="evenodd" d="M12.5 4.16669C7.89759 4.16669 4.16663 7.89765 4.16663 12.5C4.16663 17.1024 7.89759 20.8334 12.5 20.8334C17.1023 20.8334 20.8333 17.1024 20.8333 12.5C20.8333 7.89765 17.1023 4.16669 12.5 4.16669ZM5.83329 12.5C5.83329 16.1819 8.81806 19.1667 12.5 19.1667C16.1819 19.1667 19.1666 16.1819 19.1666 12.5C19.1666 8.81812 16.1819 5.83335 12.5 5.83335C8.81806 5.83335 5.83329 8.81812 5.83329 12.5Z" fill="#1E5AFF"/>
<path fill-rule="evenodd" clip-rule="evenodd" d="M20.8333 27.5C20.8333 31.1819 23.8181 34.1667 27.5 34.1667C28.8261 34.1667 30.0617 33.7795 31.1001 33.112L29.1666 31.1785V28.1911C28.1956 27.8479 27.5 26.9219 27.5 25.8334C27.5 24.4526 28.6192 23.3334 30 23.3334C31.3807 23.3334 32.5 24.4526 32.5 25.8334C32.5 26.9219 31.8043 27.8479 30.8333 28.1911V30.4882L32.3835 32.0383C32.4064 32.0136 32.4292 31.9888 32.4518 31.9637L33.6316 33.1435C32.1087 34.7972 29.9253 35.8334 27.5 35.8334C22.8976 35.8334 19.1666 32.1024 19.1666 27.5C19.1666 25.9282 19.6018 24.4581 20.3582 23.2034L21.5821 24.4273C21.1037 25.3468 20.8333 26.3918 20.8333 27.5ZM30.8333 25.8334C30.8333 26.2936 30.4602 26.6667 30 26.6667C29.5397 26.6667 29.1666 26.2936 29.1666 25.8334C29.1666 25.3731 29.5397 25 30 25C30.4602 25 30.8333 25.3731 30.8333 25.8334Z" fill="#1E5AFF"/>
<path fill-rule="evenodd" clip-rule="evenodd" d="M23.8998 21.888C24.9382 21.2205 26.1739 20.8334 27.5 20.8334C31.1819 20.8334 34.1666 23.8181 34.1666 27.5C34.1666 28.6082 33.8962 29.6532 33.4178 30.5727L34.6417 31.7966C35.3981 30.542 35.8333 29.0718 35.8333 27.5C35.8333 22.8976 32.1023 19.1667 27.5 19.1667C25.0746 19.1667 22.8912 20.2028 21.3684 21.8566L22.5481 23.0363C22.5707 23.0113 22.5935 22.9864 22.6165 22.9617L24.1666 24.5119V26.8089C23.1956 27.1521 22.5 28.0782 22.5 29.1667C22.5 30.5474 23.6192 31.6667 25 31.6667C26.3807 31.6667 27.5 30.5474 27.5 29.1667C27.5 28.0782 26.8043 27.1521 25.8333 26.8089V23.8215L23.8998 21.888ZM25 28.3334C24.5397 28.3334 24.1666 28.7064 24.1666 29.1667C24.1666 29.6269 24.5397 30 25 30C25.4602 30 25.8333 29.6269 25.8333 29.1667C25.8333 28.7064 25.4602 28.3334 25 28.3334Z" fill="#1E5AFF"/>
<path d="M29.1666 13.3334V14.1667H26.6666L30 17.5L33.3333 14.1667H30.8333V13.3334C30.8333 11.0322 28.9678 9.16669 26.6666 9.16669H22.5V10.8334H26.6666C28.0473 10.8334 29.1666 11.9526 29.1666 13.3334Z" fill="#1E5AFF"/>
<path d="M9.16663 25.8334H6.66663L9.99996 22.5L13.3333 25.8334H10.8333V26.6667C10.8333 28.0474 11.9526 29.1667 13.3333 29.1667H17.5V30.8334H13.3333C11.0321 30.8334 9.16663 28.9679 9.16663 26.6667V25.8334Z" fill="#1E5AFF"/>
</svg>
