<svg width="24" height="24" viewBox="0 0 24 24" fill="none" xmlns="http://www.w3.org/2000/svg">
<circle cx="12" cy="12" r="12" fill="#33A9FB"/>
<path fill-rule="evenodd" clip-rule="evenodd" d="M8.58974 6.27283C8.45127 6.27283 8.32056 6.33844 8.23555 6.45062L5.09452 10.5954C4.95905 10.7741 4.97032 11.0274 5.1211 11.1928L11.6678 18.372C11.6846 18.3909 11.703 18.4086 11.723 18.4247C11.7572 18.4522 11.7947 18.4741 11.834 18.4902C11.8877 18.5121 11.944 18.5228 12 18.5228C12.056 18.5228 12.1123 18.5121 12.166 18.4902C12.2035 18.4749 12.2393 18.4542 12.2722 18.4284C12.276 18.4255 12.2797 18.4225 12.2834 18.4194C12.3009 18.4048 12.3172 18.3889 12.3322 18.372L18.8789 11.1928C19.0297 11.0274 19.0409 10.7741 18.9055 10.5954L15.7644 6.45062C15.6794 6.33844 15.5487 6.27283 15.4103 6.27283H8.58974ZM12 7.72792L10.6309 10.4176H13.3691L12 7.72792ZM10.4941 11.3386L12 16.4664L13.5059 11.3386H10.4941ZM9.32558 7.19387L10.0118 9.64473L11.2593 7.19387H9.32558ZM9.29443 10.4176L8.50444 7.59602L6.36617 10.4176H9.29443ZM9.55683 11.3386H6.48324L11.0168 16.3102L9.55683 11.3386ZM14.6962 7.19387L13.9925 9.65323L12.7407 7.19387H14.6962ZM14.7092 10.4176L15.5107 7.61601L17.6338 10.4176H14.7092ZM14.4432 11.3386H17.5168L12.9832 16.3102L14.4432 11.3386Z" fill="white"/>
</svg>
