<svg width="36" height="33" viewBox="0 0 36 33" fill="none" xmlns="http://www.w3.org/2000/svg">
<path fill-rule="evenodd" clip-rule="evenodd" d="M25.399 3.14127V7.19047C25.399 7.88082 24.8394 8.44047 24.149 8.44047H15.4748V6.7738H23.7324V2.07063C23.7324 0.930822 25.1331 0.385713 25.9035 1.22567L35.0225 11.1669C35.4609 11.6449 35.4609 12.3789 35.0225 12.8569L25.9035 22.7981C25.1331 23.6381 23.7324 23.093 23.7324 21.9532V17.25H11.8511C11.1607 17.25 10.6011 16.6903 10.6011 16V11.9508L2.46421 20.8214L10.6011 29.692V25.6428C10.6011 24.9525 11.1607 24.3928 11.8511 24.3928H20.5253V26.0595H12.2677V30.7627C12.2677 31.9025 10.8671 32.4476 10.0966 31.6076L0.977643 21.6664C0.539192 21.1884 0.539189 20.4544 0.977643 19.9765L10.0966 10.0352C10.8671 9.19523 12.2677 9.74035 12.2677 10.8802V15.5833H24.149C24.8394 15.5833 25.399 16.143 25.399 16.8333V20.8825L33.5359 12.0119L25.399 3.14127Z" fill="#1E5AFF"/>
</svg>
