<svg width="30" height="29" viewBox="0 0 30 29" fill="none" xmlns="http://www.w3.org/2000/svg">
<path fill-rule="evenodd" clip-rule="evenodd" d="M9.16671 5.08702C6.53388 5.15614 4.46851 5.25269 3.16693 5.32381C1.84476 5.39605 0.833374 6.49189 0.833374 7.80041V10.8498C0.833374 14.7932 3.89383 18.0713 7.86518 18.1957C9.00743 18.2315 10.2816 18.2642 11.6667 18.2886V19.1667C11.6667 20.0872 12.4129 20.8334 13.3334 20.8334H16.6667C17.5872 20.8334 18.3334 20.0872 18.3334 19.1667V18.3286C20.0074 18.3183 21.4322 18.2926 22.6367 18.2586C26.4185 18.1519 29.1667 15.0607 29.1667 11.3475V7.75549C29.1667 6.47519 28.1936 5.38776 26.8887 5.30198C25.6428 5.22007 23.6305 5.11522 20.8334 5.05309V4.16671C20.8334 2.32576 19.341 0.833374 17.5 0.833374H12.5C10.6591 0.833374 9.16671 2.32576 9.16671 4.16671V5.08702ZM10.8334 5.04886C12.3592 5.01901 14.0359 5.00004 15.8334 5.00004C17.0314 5.00004 18.1423 5.00847 19.1667 5.02293V4.16671C19.1667 3.24623 18.4205 2.50004 17.5 2.50004H12.5C11.5796 2.50004 10.8334 3.24623 10.8334 4.16671V5.04886ZM22.5897 16.5926C21.4008 16.6262 19.9917 16.6517 18.3334 16.6619V15C18.3334 14.0796 17.5872 13.3334 16.6667 13.3334H13.3334C12.4129 13.3334 11.6667 14.0796 11.6667 15V16.6217C10.3012 16.5974 9.04455 16.5652 7.91739 16.5299C4.87553 16.4346 2.50004 13.9231 2.50004 10.8498V7.80041C2.50004 7.36136 2.83508 7.01109 3.25786 6.98799C5.49564 6.86572 10.0296 6.66671 15.8334 6.66671C21.2958 6.66671 24.9228 6.843 26.7794 6.96506C27.1809 6.99145 27.5 7.3257 27.5 7.75549V11.3475C27.5 14.2295 25.4004 16.5133 22.5897 16.5926ZM13.3334 15V19.1667H16.6667V15H13.3334Z" fill="#1E5AFF"/>
<path d="M1.66671 25.5316V16.8575C2.14256 17.3893 2.70493 17.8413 3.33337 18.1904V25.5316C3.33337 25.9712 3.6688 26.3217 4.09203 26.3447C6.34315 26.4669 10.9051 26.6668 16.6667 26.6668C21.6636 26.6668 24.5428 26.5164 26.0323 26.3985C26.3839 26.3706 26.6667 26.0794 26.6667 25.6715V18.4562C27.2965 18.1455 27.8584 17.7254 28.3334 17.2204V25.6715C28.3334 26.8932 27.4366 27.9591 26.1639 28.0599C24.6195 28.1822 21.6948 28.3334 16.6667 28.3334C10.868 28.3334 6.27505 28.1323 4.00166 28.0089C2.67867 27.9371 1.66671 26.8407 1.66671 25.5316Z" fill="#1E5AFF"/>
</svg>
