<svg width="32" height="33" viewBox="0 0 32 33" fill="none" xmlns="http://www.w3.org/2000/svg">
<path fill-rule="evenodd" clip-rule="evenodd" d="M2.66663 15C2.66663 21.0219 6.65874 26.1114 12.1408 27.7663C11.9435 28.1921 11.8333 28.6665 11.8333 29.1667C11.8333 29.2507 11.8364 29.3339 11.8425 29.4164C5.58065 27.6138 0.999959 21.8418 0.999959 15C0.999959 13.9395 1.11002 12.9046 1.31934 11.9063C0.618855 11.3736 0.166626 10.5313 0.166626 9.58333C0.166626 7.9725 1.47246 6.66667 3.08329 6.66667C4.69412 6.66667 5.99996 7.9725 5.99996 9.58333C5.99996 11.1942 4.69412 12.5 3.08329 12.5C3.0223 12.5 2.96174 12.4981 2.90168 12.4944C2.74738 13.306 2.66663 14.1436 2.66663 15ZM4.33329 9.58333C4.33329 10.2737 3.77365 10.8333 3.08329 10.8333C2.39294 10.8333 1.83329 10.2737 1.83329 9.58333C1.83329 8.89298 2.39294 8.33333 3.08329 8.33333C3.77365 8.33333 4.33329 8.89298 4.33329 9.58333Z" fill="#1E5AFF"/>
<path fill-rule="evenodd" clip-rule="evenodd" d="M6.02286 6.1547C8.46542 3.40164 12.0301 1.66667 16 1.66667C20.5455 1.66667 24.5597 3.94127 26.9666 7.41434C26.3731 7.94824 26 8.7222 26 9.58333C26 11.1942 27.3058 12.5 28.9166 12.5C30.5275 12.5 31.8333 11.1942 31.8333 9.58333C31.8333 7.9725 30.5275 6.66667 28.9166 6.66667C28.7732 6.66667 28.6322 6.67702 28.4943 6.69702C25.8062 2.66004 21.2137 0 16 0C11.4612 0 7.39331 2.01583 4.64269 5.20103C5.18133 5.39759 5.65503 5.72912 6.02286 6.1547ZM30.1666 9.58333C30.1666 10.2737 29.607 10.8333 28.9166 10.8333C28.2263 10.8333 27.6666 10.2737 27.6666 9.58333C27.6666 8.89298 28.2263 8.33333 28.9166 8.33333C29.607 8.33333 30.1666 8.89298 30.1666 9.58333Z" fill="#1E5AFF"/>
<path fill-rule="evenodd" clip-rule="evenodd" d="M29.3333 15C29.3333 14.7201 29.3247 14.4422 29.3077 14.1666L29.3333 14.1667C29.9194 14.1667 30.4701 14.0154 30.9486 13.7498C30.9826 14.1621 31 14.579 31 15C31 22.1387 26.0131 28.1127 19.3329 29.6284C19.3089 31.2184 18.0124 32.5 16.4166 32.5C14.8058 32.5 13.5 31.1942 13.5 29.5833C13.5 27.9725 14.8058 26.6667 16.4166 26.6667C17.4529 26.6667 18.3629 27.2071 18.8803 28.0214C24.8595 26.7048 29.3333 21.3749 29.3333 15ZM16.4166 30.8333C17.107 30.8333 17.6666 30.2737 17.6666 29.5833C17.6666 28.893 17.107 28.3333 16.4166 28.3333C15.7263 28.3333 15.1666 28.893 15.1666 29.5833C15.1666 30.2737 15.7263 30.8333 16.4166 30.8333Z" fill="#1E5AFF"/>
<path fill-rule="evenodd" clip-rule="evenodd" d="M5.99996 15C5.99996 20.5228 10.4771 25 15.9999 25C21.5228 25 26 20.5228 26 15C26 9.47715 21.5228 5 16 5C10.4771 5 5.99996 9.47715 5.99996 15ZM8.18383 17.8966C7.84936 16.9944 7.66663 16.0185 7.66663 15C7.66663 13.9815 7.84936 13.0056 8.18383 12.1034C9.34693 12.3033 10.5158 12.4582 11.6878 12.5682C11.6014 13.3467 11.5555 14.1613 11.5555 15C11.5555 15.8387 11.6014 16.6533 11.6878 17.4318C10.5158 17.5418 9.34693 17.6967 8.18383 17.8966ZM11.9414 10.9179C10.944 10.8265 9.94884 10.7014 8.95775 10.5425C9.95644 8.968 11.4686 7.75133 13.2587 7.12803C12.6935 8.12575 12.2385 9.42491 11.9414 10.9179ZM13.2221 15C13.2221 14.196 13.2675 13.4235 13.3508 12.694C15.1154 12.7955 16.8844 12.7955 18.649 12.694C18.7323 13.4235 18.7777 14.196 18.7777 15C18.7777 15.804 18.7323 16.5765 18.649 17.306C16.8844 17.2045 15.1154 17.2045 13.3508 17.306C13.2675 16.5765 13.2221 15.804 13.2221 15ZM13.6179 11.0396C15.2048 11.1247 16.7951 11.1247 18.3819 11.0396C18.185 10.1124 17.9237 9.29014 17.6196 8.60583C17.274 7.8283 16.9057 7.30227 16.5809 6.99317C16.2647 6.69225 16.0713 6.66667 15.9999 6.66667C15.9286 6.66667 15.7351 6.69225 15.4189 6.99317C15.0941 7.30227 14.7258 7.8283 14.3802 8.60583C14.0761 9.29014 13.8149 10.1124 13.6179 11.0396ZM20.4444 15C20.4444 14.1613 20.3985 13.3467 20.312 12.5682C21.4841 12.4582 22.653 12.3033 23.8161 12.1034C24.1506 13.0056 24.3333 13.9814 24.3333 15C24.3333 16.0186 24.1506 16.9944 23.8161 17.8966C22.653 17.6967 21.4841 17.5418 20.312 17.4318C20.3985 16.6533 20.4444 15.8387 20.4444 15ZM20.0584 10.9179C21.0559 10.8265 22.051 10.7014 23.0421 10.5424C22.0434 8.96795 20.5312 7.75128 18.7411 7.128C19.3063 8.12571 19.7613 9.42488 20.0584 10.9179ZM8.95775 19.4575C9.95644 21.032 11.4686 22.2487 13.2587 22.872C12.6935 21.8743 12.2385 20.5751 11.9414 19.0821C10.944 19.1735 9.94884 19.2986 8.95775 19.4575ZM13.6179 18.9604C13.8149 19.8876 14.0761 20.7099 14.3802 21.3942C14.7258 22.1717 15.0941 22.6977 15.4189 23.0068C15.7351 23.3077 15.9286 23.3333 15.9999 23.3333C16.0713 23.3333 16.2647 23.3077 16.5809 23.0068C16.9057 22.6977 17.274 22.1717 17.6196 21.3942C17.9237 20.7099 18.185 19.8876 18.3819 18.9604C16.7951 18.8753 15.2048 18.8753 13.6179 18.9604ZM20.0584 19.0821C19.7613 20.5751 19.3063 21.8743 18.7411 22.872C20.5312 22.2487 22.0434 21.032 23.0421 19.4576C22.051 19.2986 21.0559 19.1735 20.0584 19.0821Z" fill="#1E5AFF"/>
</svg>
