<svg width="24" height="24" viewBox="0 0 24 24" fill="none" xmlns="http://www.w3.org/2000/svg">
<circle cx="12" cy="12" r="12" fill="#2CA57F"/>
<path d="M13.3727 10.198V8.68537H17.3052V6.33173H6.56151V8.68537H10.4941V10.2036C7.31677 10.3507 4.93762 10.9544 4.93762 11.676C4.93762 12.3976 7.31677 12.9999 10.4941 13.147V17.8626C10.9813 17.9528 11.4837 18 12 18C12.4688 18 12.9284 17.9612 13.3742 17.8862V13.154C16.6174 13.018 19.0624 12.4073 19.0624 11.676C19.0609 10.9446 16.6158 10.334 13.3727 10.198ZM12 12.6058C8.45656 12.6058 5.58411 12.1229 5.58411 11.5261C5.58411 11.0168 7.67679 10.5894 10.4941 10.4756V12.2061C10.9721 12.2686 11.4531 12.2991 11.9341 12.2991C12.4152 12.2991 12.8962 12.2686 13.3742 12.2061V10.4714C16.2574 10.5783 18.4159 11.0099 18.4159 11.5275C18.4144 12.1215 15.5419 12.6058 12 12.6058Z" fill="white"/>
</svg>
