<svg xmlns="http://www.w3.org/2000/svg" xmlns:xlink="http://www.w3.org/1999/xlink"><symbol id="btc" viewBox="0 0 24 24">
<circle cx="12" cy="12" r="12" fill="#FF9B22"/>
<path d="M16.9423 11.2289C17.1433 10.7967 17.2387 10.34 17.2061 9.85984C17.1864 9.56126 17.1036 9.28395 16.9593 9.02494C16.76 8.66897 16.477 8.39382 16.15 8.15977C15.7051 7.84104 15.2135 7.61882 14.705 7.42474C14.6264 7.39476 14.6264 7.39626 14.6473 7.31724C14.8243 6.65681 15.0013 5.99638 15.1827 5.33604C15.1988 5.27342 15.1843 5.25216 15.1263 5.23756C14.7371 5.13418 14.3478 5.02931 13.96 4.92296C13.9051 4.90692 13.881 4.91695 13.865 4.97508C13.7281 5.49392 13.5882 6.01121 13.4498 6.52852C13.4096 6.6776 13.3695 6.82518 13.3277 6.97572C13.3098 6.97388 13.2949 6.97509 13.2815 6.97184C12.9813 6.89415 12.6812 6.81496 12.3794 6.74173C12.3125 6.72546 12.313 6.7015 12.3275 6.64633C12.5042 5.99939 12.6779 5.35238 12.8516 4.70538C12.8725 4.62936 12.871 4.62933 12.7923 4.60684C12.5337 4.53744 12.2767 4.46657 12.0182 4.39717C11.8682 4.35683 11.7166 4.31646 11.5606 4.2745C11.5526 4.30282 11.5432 4.32362 11.5383 4.3445C11.3599 5.0049 11.1829 5.66683 11.0044 6.32723C10.9835 6.40774 10.9835 6.40774 10.8973 6.38511C10.6313 6.31557 10.3654 6.24453 10.1009 6.17202C9.54821 6.02355 8.99699 5.8751 8.44583 5.72366C8.38342 5.70748 8.3622 5.72355 8.34615 5.78169C8.2365 6.20365 8.12383 6.62706 8.0082 7.04891C7.99531 7.09811 8.00389 7.11775 8.05293 7.13068C8.25062 7.17943 8.44837 7.22519 8.64439 7.2829C8.81963 7.33421 8.99791 7.38259 9.16224 7.45767C9.45241 7.59061 9.58833 7.90041 9.50153 8.22092C9.28128 9.03636 9.064 9.85185 8.84372 10.6688C8.55093 11.7616 8.25814 12.8543 7.96088 13.947C7.91907 14.102 7.81982 14.2155 7.6649 14.2725C7.54156 14.3181 7.41961 14.2917 7.30075 14.2595C7.02885 14.1868 6.75849 14.1112 6.48667 14.0341C6.43618 14.0196 6.40626 14.022 6.38131 14.077C6.18779 14.5108 5.98986 14.9416 5.79338 15.3739C5.77311 15.4184 5.75434 15.463 5.73243 15.5151C5.7651 15.5247 5.79033 15.5327 5.81411 15.5391C6.63418 15.7631 7.45276 15.9872 8.27137 16.2097C8.3308 16.2258 8.33784 16.2484 8.32184 16.3035C8.14181 16.9684 7.96327 17.6333 7.78474 18.2982C7.75904 18.3921 7.75904 18.3921 7.85561 18.4179L8.99663 18.7275C9.07391 18.747 9.07388 18.7485 9.09476 18.6725C9.2509 18.0851 9.40854 17.4977 9.56617 16.9103C9.59196 16.8119 9.62073 16.7136 9.648 16.6152C9.66589 16.6171 9.67634 16.6173 9.68524 16.6204C9.99271 16.7072 10.2987 16.794 10.6062 16.8779C10.6523 16.8907 10.6564 16.9118 10.6451 16.955C10.4666 17.6154 10.2897 18.2759 10.1112 18.9363C10.0886 19.0227 10.0886 19.0227 10.1718 19.0453C10.5567 19.1486 10.943 19.2519 11.3262 19.3582C11.3857 19.3743 11.4083 19.3643 11.4244 19.3016C11.5999 18.6412 11.7783 17.9793 11.9568 17.3189C11.9649 17.2861 11.9774 17.2548 11.9885 17.2236C12.0956 17.2436 12.1953 17.262 12.2935 17.2819C12.6878 17.3599 13.0841 17.4109 13.4839 17.4336C13.824 17.4536 14.1618 17.4391 14.4989 17.3827C15.3304 17.2458 15.9584 16.8158 16.3669 16.0744C16.6083 15.6355 16.7696 15.1681 16.83 14.6672C16.8674 14.3548 16.8569 14.0459 16.7641 13.7429C16.6194 13.2696 16.32 12.9147 15.9313 12.627C15.7973 12.5286 15.6541 12.4419 15.5111 12.3447C15.5501 12.335 15.5861 12.3252 15.6222 12.3154C16.2227 12.1516 16.676 11.8007 16.9423 11.2289ZM13.386 15.3743C13.1634 15.4555 12.9341 15.5005 12.6981 15.499C12.4771 15.4962 12.2547 15.495 12.0341 15.4712C11.6585 15.4311 11.2897 15.3491 10.9242 15.2521C10.6716 15.1858 10.4206 15.1136 10.1695 15.0443C10.1502 15.038 10.1309 15.0316 10.1087 15.0237C10.1586 14.8328 10.207 14.648 10.2568 14.4631C10.4546 13.7281 10.654 12.9917 10.8518 12.2568C10.8663 12.2016 10.8815 12.1839 10.9425 12.2001C11.4641 12.333 11.989 12.4539 12.4946 12.642C12.8816 12.7858 13.2563 12.9533 13.5859 13.2099C13.8271 13.4003 14.0244 13.6259 14.1082 13.9287C14.2534 14.4559 14.0252 15.1423 13.386 15.3743ZM14.485 10.6377C14.3267 10.9494 14.0548 11.112 13.7262 11.1896C13.4532 11.2533 13.1755 11.2495 12.8981 11.2262C12.3375 11.1779 11.8015 11.0148 11.2638 10.8651C11.2549 10.8619 11.2461 10.8558 11.2312 10.8495C11.4613 9.99229 11.6912 9.13807 11.9213 8.27787C12.0833 8.31844 12.2379 8.35588 12.394 8.39484C12.7715 8.4875 13.1443 8.59505 13.5012 8.75026C13.7871 8.87562 14.0545 9.02611 14.2803 9.24473C14.6864 9.63913 14.7257 10.1599 14.485 10.6377Z" fill="white"/>
</symbol><symbol id="buy" viewBox="0 0 40 40">
<path d="M16.8125 13.8417C16.8125 12.7334 15.875 12.0709 14 11.8542L11.75 11.6042C11.375 11.5625 11.0916 11.5167 10.9 11.4667C10.7083 11.4167 10.575 11.3584 10.5 11.2917C10.425 11.2167 10.3875 11.1167 10.3875 10.9917V10.8792C10.3875 10.6709 10.5583 10.5125 10.9 10.4042C11.25 10.2959 11.7625 10.2417 12.4375 10.2417C13.2208 10.2417 13.8083 10.3209 14.2 10.4792C14.6 10.6292 14.8 10.8542 14.8 11.1542V11.2417H16.6375V11.1542C16.6375 10.4709 16.3708 9.92919 15.8375 9.52919C15.3125 9.12085 14.5458 8.86669 13.5375 8.76669V7.70419H11.6375V8.75419C10.6458 8.84585 9.87913 9.08752 9.33746 9.47919C8.79579 9.86252 8.52496 10.3709 8.52496 11.0042V11.1292C8.52496 11.7125 8.74996 12.1667 9.19996 12.4917C9.64996 12.8167 10.3541 13.0334 11.3125 13.1417L13.6 13.3917C13.9583 13.4334 14.2333 13.4792 14.425 13.5292C14.6166 13.5709 14.75 13.6334 14.825 13.7167C14.9 13.8 14.9375 13.9084 14.9375 14.0417V14.1542C14.9375 14.4042 14.7541 14.5917 14.3875 14.7167C14.0291 14.8334 13.4791 14.8917 12.7375 14.8917C11.8791 14.8917 11.2416 14.8084 10.825 14.6417C10.4166 14.4667 10.2125 14.2042 10.2125 13.8542V13.7667H8.37496V13.8542C8.37496 14.5959 8.64996 15.1792 9.19996 15.6042C9.74996 16.0292 10.5625 16.2875 11.6375 16.3792V17.4167H13.5375V16.3792C14.5875 16.2792 15.3958 16.025 15.9625 15.6167C16.5291 15.2 16.8125 14.65 16.8125 13.9667V13.8417Z" fill="#1E5AFF"/>
<path fill-rule="evenodd" clip-rule="evenodd" d="M12.5 4.16669C7.89759 4.16669 4.16663 7.89765 4.16663 12.5C4.16663 17.1024 7.89759 20.8334 12.5 20.8334C17.1023 20.8334 20.8333 17.1024 20.8333 12.5C20.8333 7.89765 17.1023 4.16669 12.5 4.16669ZM5.83329 12.5C5.83329 16.1819 8.81806 19.1667 12.5 19.1667C16.1819 19.1667 19.1666 16.1819 19.1666 12.5C19.1666 8.81812 16.1819 5.83335 12.5 5.83335C8.81806 5.83335 5.83329 8.81812 5.83329 12.5Z" fill="#1E5AFF"/>
<path fill-rule="evenodd" clip-rule="evenodd" d="M20.8333 27.5C20.8333 31.1819 23.8181 34.1667 27.5 34.1667C28.8261 34.1667 30.0617 33.7795 31.1001 33.112L29.1666 31.1785V28.1911C28.1956 27.8479 27.5 26.9219 27.5 25.8334C27.5 24.4526 28.6192 23.3334 30 23.3334C31.3807 23.3334 32.5 24.4526 32.5 25.8334C32.5 26.9219 31.8043 27.8479 30.8333 28.1911V30.4882L32.3835 32.0383C32.4064 32.0136 32.4292 31.9888 32.4518 31.9637L33.6316 33.1435C32.1087 34.7972 29.9253 35.8334 27.5 35.8334C22.8976 35.8334 19.1666 32.1024 19.1666 27.5C19.1666 25.9282 19.6018 24.4581 20.3582 23.2034L21.5821 24.4273C21.1037 25.3468 20.8333 26.3918 20.8333 27.5ZM30.8333 25.8334C30.8333 26.2936 30.4602 26.6667 30 26.6667C29.5397 26.6667 29.1666 26.2936 29.1666 25.8334C29.1666 25.3731 29.5397 25 30 25C30.4602 25 30.8333 25.3731 30.8333 25.8334Z" fill="#1E5AFF"/>
<path fill-rule="evenodd" clip-rule="evenodd" d="M23.8998 21.888C24.9382 21.2205 26.1739 20.8334 27.5 20.8334C31.1819 20.8334 34.1666 23.8181 34.1666 27.5C34.1666 28.6082 33.8962 29.6532 33.4178 30.5727L34.6417 31.7966C35.3981 30.542 35.8333 29.0718 35.8333 27.5C35.8333 22.8976 32.1023 19.1667 27.5 19.1667C25.0746 19.1667 22.8912 20.2028 21.3684 21.8566L22.5481 23.0363C22.5707 23.0113 22.5935 22.9864 22.6165 22.9617L24.1666 24.5119V26.8089C23.1956 27.1521 22.5 28.0782 22.5 29.1667C22.5 30.5474 23.6192 31.6667 25 31.6667C26.3807 31.6667 27.5 30.5474 27.5 29.1667C27.5 28.0782 26.8043 27.1521 25.8333 26.8089V23.8215L23.8998 21.888ZM25 28.3334C24.5397 28.3334 24.1666 28.7064 24.1666 29.1667C24.1666 29.6269 24.5397 30 25 30C25.4602 30 25.8333 29.6269 25.8333 29.1667C25.8333 28.7064 25.4602 28.3334 25 28.3334Z" fill="#1E5AFF"/>
<path d="M29.1666 13.3334V14.1667H26.6666L30 17.5L33.3333 14.1667H30.8333V13.3334C30.8333 11.0322 28.9678 9.16669 26.6666 9.16669H22.5V10.8334H26.6666C28.0473 10.8334 29.1666 11.9526 29.1666 13.3334Z" fill="#1E5AFF"/>
<path d="M9.16663 25.8334H6.66663L9.99996 22.5L13.3333 25.8334H10.8333V26.6667C10.8333 28.0474 11.9526 29.1667 13.3333 29.1667H17.5V30.8334H13.3333C11.0321 30.8334 9.16663 28.9679 9.16663 26.6667V25.8334Z" fill="#1E5AFF"/>
</symbol><symbol id="dmd" viewBox="0 0 24 24">
<circle cx="12" cy="12" r="12" fill="#33A9FB"/>
<path fill-rule="evenodd" clip-rule="evenodd" d="M8.58974 6.27283C8.45127 6.27283 8.32056 6.33844 8.23555 6.45062L5.09452 10.5954C4.95905 10.7741 4.97032 11.0274 5.1211 11.1928L11.6678 18.372C11.6846 18.3909 11.703 18.4086 11.723 18.4247C11.7572 18.4522 11.7947 18.4741 11.834 18.4902C11.8877 18.5121 11.944 18.5228 12 18.5228C12.056 18.5228 12.1123 18.5121 12.166 18.4902C12.2035 18.4749 12.2393 18.4542 12.2722 18.4284C12.276 18.4255 12.2797 18.4225 12.2834 18.4194C12.3009 18.4048 12.3172 18.3889 12.3322 18.372L18.8789 11.1928C19.0297 11.0274 19.0409 10.7741 18.9055 10.5954L15.7644 6.45062C15.6794 6.33844 15.5487 6.27283 15.4103 6.27283H8.58974ZM12 7.72792L10.6309 10.4176H13.3691L12 7.72792ZM10.4941 11.3386L12 16.4664L13.5059 11.3386H10.4941ZM9.32558 7.19387L10.0118 9.64473L11.2593 7.19387H9.32558ZM9.29443 10.4176L8.50444 7.59602L6.36617 10.4176H9.29443ZM9.55683 11.3386H6.48324L11.0168 16.3102L9.55683 11.3386ZM14.6962 7.19387L13.9925 9.65323L12.7407 7.19387H14.6962ZM14.7092 10.4176L15.5107 7.61601L17.6338 10.4176H14.7092ZM14.4432 11.3386H17.5168L12.9832 16.3102L14.4432 11.3386Z" fill="white"/>
</symbol><symbol id="eth"><circle cx="12" cy="12" r="12" fill="#2F2F2F"/><path d="M11.693 15.717v3.416L7.57 13.406l4.123 2.311zm0-.905v-4.095l-4.148 1.752 4.148 2.343zm0-9.812v4.79l-4.148 1.753L11.693 5zm.774 10.717v3.416l4.124-5.727-4.124 2.311zm0-.905v-4.095l4.149 1.752-4.15 2.343zm0-9.812v4.79l4.149 1.753L12.466 5z" fill="#fff"/></symbol><symbol id="exchange" viewBox="0 0 36 33">
<path fill-rule="evenodd" clip-rule="evenodd" d="M25.399 3.14127V7.19047C25.399 7.88082 24.8394 8.44047 24.149 8.44047H15.4748V6.7738H23.7324V2.07063C23.7324 0.930822 25.1331 0.385713 25.9035 1.22567L35.0225 11.1669C35.4609 11.6449 35.4609 12.3789 35.0225 12.8569L25.9035 22.7981C25.1331 23.6381 23.7324 23.093 23.7324 21.9532V17.25H11.8511C11.1607 17.25 10.6011 16.6903 10.6011 16V11.9508L2.46421 20.8214L10.6011 29.692V25.6428C10.6011 24.9525 11.1607 24.3928 11.8511 24.3928H20.5253V26.0595H12.2677V30.7627C12.2677 31.9025 10.8671 32.4476 10.0966 31.6076L0.977643 21.6664C0.539192 21.1884 0.539189 20.4544 0.977643 19.9765L10.0966 10.0352C10.8671 9.19523 12.2677 9.74035 12.2677 10.8802V15.5833H24.149C24.8394 15.5833 25.399 16.143 25.399 16.8333V20.8825L33.5359 12.0119L25.399 3.14127Z" fill="#1E5AFF"/>
</symbol><symbol id="invest" viewBox="0 0 30 29">
<path fill-rule="evenodd" clip-rule="evenodd" d="M9.16671 5.08702C6.53388 5.15614 4.46851 5.25269 3.16693 5.32381C1.84476 5.39605 0.833374 6.49189 0.833374 7.80041V10.8498C0.833374 14.7932 3.89383 18.0713 7.86518 18.1957C9.00743 18.2315 10.2816 18.2642 11.6667 18.2886V19.1667C11.6667 20.0872 12.4129 20.8334 13.3334 20.8334H16.6667C17.5872 20.8334 18.3334 20.0872 18.3334 19.1667V18.3286C20.0074 18.3183 21.4322 18.2926 22.6367 18.2586C26.4185 18.1519 29.1667 15.0607 29.1667 11.3475V7.75549C29.1667 6.47519 28.1936 5.38776 26.8887 5.30198C25.6428 5.22007 23.6305 5.11522 20.8334 5.05309V4.16671C20.8334 2.32576 19.341 0.833374 17.5 0.833374H12.5C10.6591 0.833374 9.16671 2.32576 9.16671 4.16671V5.08702ZM10.8334 5.04886C12.3592 5.01901 14.0359 5.00004 15.8334 5.00004C17.0314 5.00004 18.1423 5.00847 19.1667 5.02293V4.16671C19.1667 3.24623 18.4205 2.50004 17.5 2.50004H12.5C11.5796 2.50004 10.8334 3.24623 10.8334 4.16671V5.04886ZM22.5897 16.5926C21.4008 16.6262 19.9917 16.6517 18.3334 16.6619V15C18.3334 14.0796 17.5872 13.3334 16.6667 13.3334H13.3334C12.4129 13.3334 11.6667 14.0796 11.6667 15V16.6217C10.3012 16.5974 9.04455 16.5652 7.91739 16.5299C4.87553 16.4346 2.50004 13.9231 2.50004 10.8498V7.80041C2.50004 7.36136 2.83508 7.01109 3.25786 6.98799C5.49564 6.86572 10.0296 6.66671 15.8334 6.66671C21.2958 6.66671 24.9228 6.843 26.7794 6.96506C27.1809 6.99145 27.5 7.3257 27.5 7.75549V11.3475C27.5 14.2295 25.4004 16.5133 22.5897 16.5926ZM13.3334 15V19.1667H16.6667V15H13.3334Z" fill="#1E5AFF"/>
<path d="M1.66671 25.5316V16.8575C2.14256 17.3893 2.70493 17.8413 3.33337 18.1904V25.5316C3.33337 25.9712 3.6688 26.3217 4.09203 26.3447C6.34315 26.4669 10.9051 26.6668 16.6667 26.6668C21.6636 26.6668 24.5428 26.5164 26.0323 26.3985C26.3839 26.3706 26.6667 26.0794 26.6667 25.6715V18.4562C27.2965 18.1455 27.8584 17.7254 28.3334 17.2204V25.6715C28.3334 26.8932 27.4366 27.9591 26.1639 28.0599C24.6195 28.1822 21.6948 28.3334 16.6667 28.3334C10.868 28.3334 6.27505 28.1323 4.00166 28.0089C2.67867 27.9371 1.66671 26.8407 1.66671 25.5316Z" fill="#1E5AFF"/>
</symbol><symbol id="transfer" viewBox="0 0 32 33">
<path fill-rule="evenodd" clip-rule="evenodd" d="M2.66663 15C2.66663 21.0219 6.65874 26.1114 12.1408 27.7663C11.9435 28.1921 11.8333 28.6665 11.8333 29.1667C11.8333 29.2507 11.8364 29.3339 11.8425 29.4164C5.58065 27.6138 0.999959 21.8418 0.999959 15C0.999959 13.9395 1.11002 12.9046 1.31934 11.9063C0.618855 11.3736 0.166626 10.5313 0.166626 9.58333C0.166626 7.9725 1.47246 6.66667 3.08329 6.66667C4.69412 6.66667 5.99996 7.9725 5.99996 9.58333C5.99996 11.1942 4.69412 12.5 3.08329 12.5C3.0223 12.5 2.96174 12.4981 2.90168 12.4944C2.74738 13.306 2.66663 14.1436 2.66663 15ZM4.33329 9.58333C4.33329 10.2737 3.77365 10.8333 3.08329 10.8333C2.39294 10.8333 1.83329 10.2737 1.83329 9.58333C1.83329 8.89298 2.39294 8.33333 3.08329 8.33333C3.77365 8.33333 4.33329 8.89298 4.33329 9.58333Z" fill="#1E5AFF"/>
<path fill-rule="evenodd" clip-rule="evenodd" d="M6.02286 6.1547C8.46542 3.40164 12.0301 1.66667 16 1.66667C20.5455 1.66667 24.5597 3.94127 26.9666 7.41434C26.3731 7.94824 26 8.7222 26 9.58333C26 11.1942 27.3058 12.5 28.9166 12.5C30.5275 12.5 31.8333 11.1942 31.8333 9.58333C31.8333 7.9725 30.5275 6.66667 28.9166 6.66667C28.7732 6.66667 28.6322 6.67702 28.4943 6.69702C25.8062 2.66004 21.2137 0 16 0C11.4612 0 7.39331 2.01583 4.64269 5.20103C5.18133 5.39759 5.65503 5.72912 6.02286 6.1547ZM30.1666 9.58333C30.1666 10.2737 29.607 10.8333 28.9166 10.8333C28.2263 10.8333 27.6666 10.2737 27.6666 9.58333C27.6666 8.89298 28.2263 8.33333 28.9166 8.33333C29.607 8.33333 30.1666 8.89298 30.1666 9.58333Z" fill="#1E5AFF"/>
<path fill-rule="evenodd" clip-rule="evenodd" d="M29.3333 15C29.3333 14.7201 29.3247 14.4422 29.3077 14.1666L29.3333 14.1667C29.9194 14.1667 30.4701 14.0154 30.9486 13.7498C30.9826 14.1621 31 14.579 31 15C31 22.1387 26.0131 28.1127 19.3329 29.6284C19.3089 31.2184 18.0124 32.5 16.4166 32.5C14.8058 32.5 13.5 31.1942 13.5 29.5833C13.5 27.9725 14.8058 26.6667 16.4166 26.6667C17.4529 26.6667 18.3629 27.2071 18.8803 28.0214C24.8595 26.7048 29.3333 21.3749 29.3333 15ZM16.4166 30.8333C17.107 30.8333 17.6666 30.2737 17.6666 29.5833C17.6666 28.893 17.107 28.3333 16.4166 28.3333C15.7263 28.3333 15.1666 28.893 15.1666 29.5833C15.1666 30.2737 15.7263 30.8333 16.4166 30.8333Z" fill="#1E5AFF"/>
<path fill-rule="evenodd" clip-rule="evenodd" d="M5.99996 15C5.99996 20.5228 10.4771 25 15.9999 25C21.5228 25 26 20.5228 26 15C26 9.47715 21.5228 5 16 5C10.4771 5 5.99996 9.47715 5.99996 15ZM8.18383 17.8966C7.84936 16.9944 7.66663 16.0185 7.66663 15C7.66663 13.9815 7.84936 13.0056 8.18383 12.1034C9.34693 12.3033 10.5158 12.4582 11.6878 12.5682C11.6014 13.3467 11.5555 14.1613 11.5555 15C11.5555 15.8387 11.6014 16.6533 11.6878 17.4318C10.5158 17.5418 9.34693 17.6967 8.18383 17.8966ZM11.9414 10.9179C10.944 10.8265 9.94884 10.7014 8.95775 10.5425C9.95644 8.968 11.4686 7.75133 13.2587 7.12803C12.6935 8.12575 12.2385 9.42491 11.9414 10.9179ZM13.2221 15C13.2221 14.196 13.2675 13.4235 13.3508 12.694C15.1154 12.7955 16.8844 12.7955 18.649 12.694C18.7323 13.4235 18.7777 14.196 18.7777 15C18.7777 15.804 18.7323 16.5765 18.649 17.306C16.8844 17.2045 15.1154 17.2045 13.3508 17.306C13.2675 16.5765 13.2221 15.804 13.2221 15ZM13.6179 11.0396C15.2048 11.1247 16.7951 11.1247 18.3819 11.0396C18.185 10.1124 17.9237 9.29014 17.6196 8.60583C17.274 7.8283 16.9057 7.30227 16.5809 6.99317C16.2647 6.69225 16.0713 6.66667 15.9999 6.66667C15.9286 6.66667 15.7351 6.69225 15.4189 6.99317C15.0941 7.30227 14.7258 7.8283 14.3802 8.60583C14.0761 9.29014 13.8149 10.1124 13.6179 11.0396ZM20.4444 15C20.4444 14.1613 20.3985 13.3467 20.312 12.5682C21.4841 12.4582 22.653 12.3033 23.8161 12.1034C24.1506 13.0056 24.3333 13.9814 24.3333 15C24.3333 16.0186 24.1506 16.9944 23.8161 17.8966C22.653 17.6967 21.4841 17.5418 20.312 17.4318C20.3985 16.6533 20.4444 15.8387 20.4444 15ZM20.0584 10.9179C21.0559 10.8265 22.051 10.7014 23.0421 10.5424C22.0434 8.96795 20.5312 7.75128 18.7411 7.128C19.3063 8.12571 19.7613 9.42488 20.0584 10.9179ZM8.95775 19.4575C9.95644 21.032 11.4686 22.2487 13.2587 22.872C12.6935 21.8743 12.2385 20.5751 11.9414 19.0821C10.944 19.1735 9.94884 19.2986 8.95775 19.4575ZM13.6179 18.9604C13.8149 19.8876 14.0761 20.7099 14.3802 21.3942C14.7258 22.1717 15.0941 22.6977 15.4189 23.0068C15.7351 23.3077 15.9286 23.3333 15.9999 23.3333C16.0713 23.3333 16.2647 23.3077 16.5809 23.0068C16.9057 22.6977 17.274 22.1717 17.6196 21.3942C17.9237 20.7099 18.185 19.8876 18.3819 18.9604C16.7951 18.8753 15.2048 18.8753 13.6179 18.9604ZM20.0584 19.0821C19.7613 20.5751 19.3063 21.8743 18.7411 22.872C20.5312 22.2487 22.0434 21.032 23.0421 19.4576C22.051 19.2986 21.0559 19.1735 20.0584 19.0821Z" fill="#1E5AFF"/>
</symbol><symbol id="ttr" viewBox="0 0 24 24">
<circle cx="12" cy="12" r="12" fill="#2CA57F"/>
<path d="M13.3727 10.198V8.68537H17.3052V6.33173H6.56151V8.68537H10.4941V10.2036C7.31677 10.3507 4.93762 10.9544 4.93762 11.676C4.93762 12.3976 7.31677 12.9999 10.4941 13.147V17.8626C10.9813 17.9528 11.4837 18 12 18C12.4688 18 12.9284 17.9612 13.3742 17.8862V13.154C16.6174 13.018 19.0624 12.4073 19.0624 11.676C19.0609 10.9446 16.6158 10.334 13.3727 10.198ZM12 12.6058C8.45656 12.6058 5.58411 12.1229 5.58411 11.5261C5.58411 11.0168 7.67679 10.5894 10.4941 10.4756V12.2061C10.9721 12.2686 11.4531 12.2991 11.9341 12.2991C12.4152 12.2991 12.8962 12.2686 13.3742 12.2061V10.4714C16.2574 10.5783 18.4159 11.0099 18.4159 11.5275C18.4144 12.1215 15.5419 12.6058 12 12.6058Z" fill="white"/>
</symbol></svg>