<svg width="80" height="30" fill="none" xmlns="http://www.w3.org/2000/svg"><g clip-path="url(#clip0)"><path opacity=".8" d="M0 30l3.6-2.679L6.6 30h1.267l3.333-2.679 6.4-1.607 4.8-2.678 11.2-4.822h8l4 5.893 4.4-8.036 2-5.892 4 3.214 3.6-1.072 2.8-4.285 4.8-.536 2.4-3.214 4-1.072 2.8-2.143L80 6.43V30H7.867l-.667.536L6.6 30H0z" fill="url(#paint0_linear)"/><path d="M0 30l2.946-2.192a1 1 0 011.262.057l2.36 2.106a1 1 0 001.292.034l3.17-2.546a1 1 0 01.382-.19l6.06-1.522a1 1 0 00.243-.097l4.685-2.614 11.01-4.74a1 1 0 01.396-.082h7.264a1 1 0 01.828.439l2.783 4.1a1 1 0 001.705-.08l3.572-6.525a.999.999 0 00.07-.16l1.513-4.456a1 1 0 011.573-.458l2.477 1.99a1 1 0 00.912.18l2.746-.818a1 1 0 00.551-.412l2.342-3.584a1 1 0 01.726-.447l3.901-.435a1 1 0 00.69-.395l1.933-2.59a1 1 0 01.543-.367l3.474-.93a1 1 0 00.348-.172l1.798-1.376a1 1 0 011.438.236L80 6.43" stroke="#1E5AFF" stroke-linecap="square" stroke-linejoin="round"/></g><defs><linearGradient id="paint0_linear" x1="40" y1="1.071" x2="40" y2="30.536" gradientUnits="userSpaceOnUse"><stop stop-color="#1E5AFF"/><stop offset="1" stop-color="#1E5AFF" stop-opacity="0"/></linearGradient><clipPath id="clip0"><path fill="#fff" d="M0 0h80v30H0z"/></clipPath></defs></svg>