<svg width="80" height="30" viewBox="0 0 80 30" fill="none" xmlns="http://www.w3.org/2000/svg">
<g clip-path="url(#clip0)">
<path opacity="0.8" d="M0 30L3.6 27.3214L6.6 30H7.86667L11.2 27.3214L17.6 25.7143L22.4 23.0357L33.6 18.2143H41.6L45.6 24.1071L50 16.0714L52 10.1786L56 13.3928L59.6 12.3214L62.4 8.0357L67.2 7.49998L69.6 4.2857L73.6 3.21427L76.4 1.07141L80 6.42855V30H7.86667L7.2 30.5357L6.6 30H0Z" fill="url(#paint0_linear)"/>
<path d="M0 30L2.94554 27.8084C3.32651 27.5249 3.85428 27.5484 4.20849 27.8647L6.56802 29.9714C6.9327 30.297 7.47933 30.3112 7.86042 30.005L11.0294 27.4585C11.1418 27.3682 11.2724 27.3032 11.4122 27.2681L17.4717 25.7465C17.5569 25.7251 17.6388 25.6926 17.7155 25.6498L22.4 23.0357L33.4107 18.2958C33.5356 18.242 33.6701 18.2143 33.8061 18.2143H41.0702C41.4016 18.2143 41.7114 18.3784 41.8976 18.6526L44.6812 22.7535C45.1011 23.3722 46.0266 23.328 46.3857 22.6722L49.9582 16.1478C49.986 16.097 50.0094 16.0438 50.028 15.9889L51.5407 11.5319C51.7639 10.8743 52.5728 10.6388 53.114 11.0738L55.5911 13.0643C55.8472 13.27 56.1879 13.3369 56.5028 13.2432L59.2486 12.426C59.4755 12.3585 59.6711 12.2127 59.8005 12.0145L62.1422 8.4303C62.3055 8.18041 62.5718 8.01652 62.8684 7.98342L66.7691 7.54808C67.044 7.51739 67.2939 7.3742 67.4594 7.15254L69.3925 4.56361C69.5269 4.3836 69.718 4.25408 69.935 4.19596L73.4085 3.26557C73.5349 3.2317 73.6535 3.17332 73.7575 3.09375L75.5554 1.71776C76.0132 1.36741 76.6717 1.47566 76.9932 1.95413L80 6.42855" stroke="#1E5AFF" stroke-linecap="square" stroke-linejoin="round"/>
</g>
<defs>
<linearGradient id="paint0_linear" x1="40" y1="1.07141" x2="40" y2="30.5357" gradientUnits="userSpaceOnUse">
<stop stop-color="#1E5AFF"/>
<stop offset="1" stop-color="#1E5AFF" stop-opacity="0"/>
</linearGradient>
<clipPath id="clip0">
<rect width="80" height="30" fill="white"/>
</clipPath>
</defs>
</svg>
